<svg xmlns="http://www.w3.org/2000/svg" xmlns:xlink="http://www.w3.org/1999/xlink" width="256" zoomAndPan="magnify" viewBox="0 0 192 54" height="72" preserveAspectRatio="xMidYMid meet" version="1.0"><defs><g/><clipPath id="84368a552b"><path d="M 6.457031 11 L 35 11 L 35 45 L 6.457031 45 Z M 6.457031 11 " clip-rule="nonzero"/></clipPath><clipPath id="319c953b75"><path d="M 7 7.65625 L 40 7.65625 L 40 42 L 7 42 Z M 7 7.65625 " clip-rule="nonzero"/></clipPath></defs><g clip-path="url(#84368a552b)"><path fill="#1dace3" d="M 33.707031 18.636719 L 19.507812 43.128906 C 18.070312 45.613281 14.882812 44.914062 14.042969 41.921875 L 6.953125 16.761719 C 6.757812 16.230469 6.683594 15.65625 6.730469 15.085938 C 6.78125 14.519531 6.949219 13.96875 7.230469 13.484375 C 7.507812 13.003906 7.890625 12.601562 8.339844 12.3125 C 8.789062 12.023438 9.292969 11.855469 9.8125 11.828125 L 31.097656 12.496094 C 33.625 12.574219 35.148438 16.152344 33.707031 18.636719 Z M 33.707031 18.636719 " fill-opacity="1" fill-rule="nonzero"/></g><g clip-path="url(#319c953b75)"><path fill="#fb6908" d="M 37.652344 26.070312 L 13.09375 41.140625 C 12.535156 41.484375 11.898438 41.652344 11.253906 41.621094 C 10.613281 41.59375 9.988281 41.371094 9.453125 40.976562 C 8.921875 40.582031 8.496094 40.035156 8.226562 39.390625 C 7.957031 38.746094 7.855469 38.035156 7.929688 37.332031 L 10.738281 11.089844 C 10.804688 10.484375 11 9.90625 11.304688 9.402344 C 11.613281 8.894531 12.023438 8.476562 12.507812 8.183594 C 12.992188 7.886719 13.53125 7.71875 14.082031 7.699219 C 14.632812 7.675781 15.183594 7.800781 15.683594 8.058594 L 37.429688 19.238281 C 38.011719 19.539062 38.507812 20.007812 38.859375 20.597656 C 39.214844 21.1875 39.414062 21.875 39.4375 22.582031 C 39.457031 23.285156 39.304688 23.988281 38.988281 24.601562 C 38.675781 25.21875 38.210938 25.726562 37.652344 26.070312 Z M 37.652344 26.070312 " fill-opacity="1" fill-rule="nonzero"/></g><path fill="#001a49" d="M 10.65625 11.855469 L 9.257812 24.9375 L 13.714844 40.757812 L 24.835938 33.933594 L 33.707031 18.636719 C 33.902344 18.296875 34.046875 17.929688 34.136719 17.542969 L 23.878906 12.269531 Z M 10.65625 11.855469 " fill-opacity="1" fill-rule="nonzero"/><g fill="#000000" fill-opacity="1"><g transform="translate(43.781601, 34.712831)"><g><path d="M 5.1875 0.328125 C 3.988281 0.328125 2.898438 0.125 1.921875 -0.28125 C 0.953125 -0.695312 0.15625 -1.296875 -0.46875 -2.078125 L 2.046875 -5.046875 C 2.910156 -3.910156 3.847656 -3.34375 4.859375 -3.34375 C 5.523438 -3.34375 6.03125 -3.546875 6.375 -3.953125 C 6.726562 -4.359375 6.90625 -4.945312 6.90625 -5.71875 L 6.90625 -12.71875 L 1.28125 -12.71875 L 1.28125 -16.28125 L 11.46875 -16.28125 L 11.46875 -6 C 11.46875 -3.894531 10.9375 -2.3125 9.875 -1.25 C 8.8125 -0.195312 7.25 0.328125 5.1875 0.328125 Z M 5.1875 0.328125 "/></g></g></g><g fill="#000000" fill-opacity="1"><g transform="translate(56.738397, 34.712831)"><g><path d="M 6.796875 -12.8125 C 8.890625 -12.8125 10.484375 -12.332031 11.578125 -11.375 C 12.679688 -10.425781 13.234375 -8.96875 13.234375 -7 L 13.234375 0 L 9.125 0 L 9.125 -1.625 C 8.488281 -0.40625 7.242188 0.203125 5.390625 0.203125 C 4.421875 0.203125 3.578125 0.0351562 2.859375 -0.296875 C 2.148438 -0.640625 1.613281 -1.101562 1.25 -1.6875 C 0.882812 -2.269531 0.703125 -2.929688 0.703125 -3.671875 C 0.703125 -4.867188 1.15625 -5.796875 2.0625 -6.453125 C 2.976562 -7.109375 4.394531 -7.4375 6.3125 -7.4375 L 8.8125 -7.4375 C 8.738281 -8.78125 7.847656 -9.453125 6.140625 -9.453125 C 5.535156 -9.453125 4.921875 -9.351562 4.296875 -9.15625 C 3.679688 -8.957031 3.15625 -8.691406 2.71875 -8.359375 L 1.234375 -11.359375 C 1.929688 -11.816406 2.78125 -12.171875 3.78125 -12.421875 C 4.78125 -12.679688 5.785156 -12.8125 6.796875 -12.8125 Z M 6.625 -2.578125 C 7.144531 -2.578125 7.597656 -2.703125 7.984375 -2.953125 C 8.367188 -3.203125 8.644531 -3.566406 8.8125 -4.046875 L 8.8125 -5.140625 L 6.90625 -5.140625 C 5.625 -5.140625 4.984375 -4.710938 4.984375 -3.859375 C 4.984375 -3.472656 5.128906 -3.160156 5.421875 -2.921875 C 5.710938 -2.691406 6.113281 -2.578125 6.625 -2.578125 Z M 6.625 -2.578125 "/></g></g></g><g fill="#000000" fill-opacity="1"><g transform="translate(71.346776, 34.712831)"><g><path d="M 12.40625 -3.296875 L 12.40625 0 L 0.765625 0 L 0.765625 -2.609375 L 6.609375 -9.328125 L 0.9375 -9.328125 L 0.9375 -12.609375 L 12.171875 -12.609375 L 12.171875 -10.03125 L 6.328125 -3.296875 Z M 12.40625 -3.296875 "/></g></g></g><g fill="#000000" fill-opacity="1"><g transform="translate(84.280309, 34.712831)"><g/></g></g><g fill="#000000" fill-opacity="1"><g transform="translate(91.049479, 34.712831)"><g><path d="M 9.75 0.328125 C 8.039062 0.328125 6.507812 -0.03125 5.15625 -0.75 C 3.800781 -1.476562 2.734375 -2.484375 1.953125 -3.765625 C 1.179688 -5.054688 0.796875 -6.515625 0.796875 -8.140625 C 0.796875 -9.765625 1.179688 -11.222656 1.953125 -12.515625 C 2.734375 -13.804688 3.800781 -14.8125 5.15625 -15.53125 C 6.507812 -16.25 8.039062 -16.609375 9.75 -16.609375 C 11.238281 -16.609375 12.578125 -16.34375 13.765625 -15.8125 C 14.960938 -15.289062 15.957031 -14.535156 16.75 -13.546875 L 13.8125 -10.890625 C 12.757812 -12.160156 11.484375 -12.796875 9.984375 -12.796875 C 9.097656 -12.796875 8.304688 -12.597656 7.609375 -12.203125 C 6.921875 -11.816406 6.382812 -11.269531 6 -10.5625 C 5.625 -9.863281 5.4375 -9.054688 5.4375 -8.140625 C 5.4375 -7.222656 5.625 -6.410156 6 -5.703125 C 6.382812 -5.003906 6.921875 -4.457031 7.609375 -4.0625 C 8.304688 -3.675781 9.097656 -3.484375 9.984375 -3.484375 C 11.484375 -3.484375 12.757812 -4.117188 13.8125 -5.390625 L 16.75 -2.75 C 15.957031 -1.75 14.960938 -0.984375 13.765625 -0.453125 C 12.578125 0.0664062 11.238281 0.328125 9.75 0.328125 Z M 9.75 0.328125 "/></g></g></g><g fill="#000000" fill-opacity="1"><g transform="translate(108.216648, 34.712831)"><g><path d="M 1.421875 -12.609375 L 5.84375 -12.609375 L 5.84375 0 L 1.421875 0 Z M 3.625 -14 C 2.820312 -14 2.171875 -14.222656 1.671875 -14.671875 C 1.179688 -15.128906 0.9375 -15.691406 0.9375 -16.359375 C 0.9375 -17.023438 1.179688 -17.582031 1.671875 -18.03125 C 2.171875 -18.476562 2.820312 -18.703125 3.625 -18.703125 C 4.4375 -18.703125 5.085938 -18.488281 5.578125 -18.0625 C 6.078125 -17.632812 6.328125 -17.085938 6.328125 -16.421875 C 6.328125 -15.722656 6.078125 -15.144531 5.578125 -14.6875 C 5.085938 -14.226562 4.4375 -14 3.625 -14 Z M 3.625 -14 "/></g></g></g><g fill="#000000" fill-opacity="1"><g transform="translate(115.497575, 34.712831)"><g><path d="M 9.625 -12.8125 C 11.195312 -12.8125 12.457031 -12.347656 13.40625 -11.421875 C 14.363281 -10.492188 14.84375 -9.09375 14.84375 -7.21875 L 14.84375 0 L 10.421875 0 L 10.421875 -6.484375 C 10.421875 -8.210938 9.734375 -9.078125 8.359375 -9.078125 C 7.597656 -9.078125 6.988281 -8.828125 6.53125 -8.328125 C 6.070312 -7.828125 5.84375 -7.082031 5.84375 -6.09375 L 5.84375 0 L 1.421875 0 L 1.421875 -12.609375 L 5.625 -12.609375 L 5.625 -11.234375 C 6.125 -11.742188 6.710938 -12.132812 7.390625 -12.40625 C 8.078125 -12.675781 8.820312 -12.8125 9.625 -12.8125 Z M 9.625 -12.8125 "/></g></g></g><g fill="#000000" fill-opacity="1"><g transform="translate(131.687752, 34.712831)"><g><path d="M 14.3125 -6.28125 C 14.3125 -6.25 14.285156 -5.882812 14.234375 -5.1875 L 5.078125 -5.1875 C 5.253906 -4.539062 5.609375 -4.039062 6.140625 -3.6875 C 6.679688 -3.34375 7.359375 -3.171875 8.171875 -3.171875 C 8.773438 -3.171875 9.296875 -3.253906 9.734375 -3.421875 C 10.179688 -3.585938 10.628906 -3.863281 11.078125 -4.25 L 13.40625 -1.84375 C 12.175781 -0.476562 10.382812 0.203125 8.03125 0.203125 C 6.550781 0.203125 5.253906 -0.0703125 4.140625 -0.625 C 3.023438 -1.1875 2.160156 -1.960938 1.546875 -2.953125 C 0.929688 -3.941406 0.625 -5.066406 0.625 -6.328125 C 0.625 -7.566406 0.921875 -8.675781 1.515625 -9.65625 C 2.117188 -10.644531 2.945312 -11.414062 4 -11.96875 C 5.050781 -12.53125 6.238281 -12.8125 7.5625 -12.8125 C 8.820312 -12.8125 9.960938 -12.550781 10.984375 -12.03125 C 12.003906 -11.519531 12.8125 -10.769531 13.40625 -9.78125 C 14.007812 -8.800781 14.3125 -7.632812 14.3125 -6.28125 Z M 7.578125 -9.671875 C 6.898438 -9.671875 6.332031 -9.476562 5.875 -9.09375 C 5.414062 -8.707031 5.125 -8.179688 5 -7.515625 L 10.171875 -7.515625 C 10.046875 -8.179688 9.753906 -8.707031 9.296875 -9.09375 C 8.835938 -9.476562 8.265625 -9.671875 7.578125 -9.671875 Z M 7.578125 -9.671875 "/></g></g></g><g fill="#000000" fill-opacity="1"><g transform="translate(146.621797, 34.712831)"><g><path d="M 17.84375 -12.8125 C 19.394531 -12.8125 20.628906 -12.347656 21.546875 -11.421875 C 22.472656 -10.492188 22.9375 -9.09375 22.9375 -7.21875 L 22.9375 0 L 18.515625 0 L 18.515625 -6.484375 C 18.515625 -7.367188 18.347656 -8.019531 18.015625 -8.4375 C 17.679688 -8.863281 17.210938 -9.078125 16.609375 -9.078125 C 15.941406 -9.078125 15.40625 -8.84375 15 -8.375 C 14.601562 -7.90625 14.40625 -7.203125 14.40625 -6.265625 L 14.40625 0 L 9.984375 0 L 9.984375 -6.484375 C 9.984375 -8.210938 9.347656 -9.078125 8.078125 -9.078125 C 7.390625 -9.078125 6.84375 -8.84375 6.4375 -8.375 C 6.039062 -7.90625 5.84375 -7.203125 5.84375 -6.265625 L 5.84375 0 L 1.421875 0 L 1.421875 -12.609375 L 5.625 -12.609375 L 5.625 -11.28125 C 6.09375 -11.789062 6.648438 -12.171875 7.296875 -12.421875 C 7.941406 -12.679688 8.644531 -12.8125 9.40625 -12.8125 C 10.28125 -12.8125 11.066406 -12.648438 11.765625 -12.328125 C 12.460938 -12.003906 13.03125 -11.507812 13.46875 -10.84375 C 13.96875 -11.476562 14.597656 -11.960938 15.359375 -12.296875 C 16.117188 -12.640625 16.945312 -12.8125 17.84375 -12.8125 Z M 17.84375 -12.8125 "/></g></g></g><g fill="#000000" fill-opacity="1"><g transform="translate(170.930328, 34.712831)"><g><path d="M 6.796875 -12.8125 C 8.890625 -12.8125 10.484375 -12.332031 11.578125 -11.375 C 12.679688 -10.425781 13.234375 -8.96875 13.234375 -7 L 13.234375 0 L 9.125 0 L 9.125 -1.625 C 8.488281 -0.40625 7.242188 0.203125 5.390625 0.203125 C 4.421875 0.203125 3.578125 0.0351562 2.859375 -0.296875 C 2.148438 -0.640625 1.613281 -1.101562 1.25 -1.6875 C 0.882812 -2.269531 0.703125 -2.929688 0.703125 -3.671875 C 0.703125 -4.867188 1.15625 -5.796875 2.0625 -6.453125 C 2.976562 -7.109375 4.394531 -7.4375 6.3125 -7.4375 L 8.8125 -7.4375 C 8.738281 -8.78125 7.847656 -9.453125 6.140625 -9.453125 C 5.535156 -9.453125 4.921875 -9.351562 4.296875 -9.15625 C 3.679688 -8.957031 3.15625 -8.691406 2.71875 -8.359375 L 1.234375 -11.359375 C 1.929688 -11.816406 2.78125 -12.171875 3.78125 -12.421875 C 4.78125 -12.679688 5.785156 -12.8125 6.796875 -12.8125 Z M 6.625 -2.578125 C 7.144531 -2.578125 7.597656 -2.703125 7.984375 -2.953125 C 8.367188 -3.203125 8.644531 -3.566406 8.8125 -4.046875 L 8.8125 -5.140625 L 6.90625 -5.140625 C 5.625 -5.140625 4.984375 -4.710938 4.984375 -3.859375 C 4.984375 -3.472656 5.128906 -3.160156 5.421875 -2.921875 C 5.710938 -2.691406 6.113281 -2.578125 6.625 -2.578125 Z M 6.625 -2.578125 "/></g></g></g></svg>